<svg width="200" height="202" viewBox="0 0 200 202" fill="none" xmlns="http://www.w3.org/2000/svg">
<path d="M44.4449 22.0932C36.851 34.0034 30.6163 43.8748 30.5367 44.0748C30.4571 44.234 31.8551 44.3953 33.6143 44.3953H36.8122L26.8612 57.0646L16.8694 69.7749L24.2633 69.9749L31.698 70.1748L19.2653 84.3626L6.87551 98.5524L18.6265 98.7524L30.3776 98.9524L15.1878 114.738L0 130.526L21.2224 130.646L42.4449 130.726V137.961C42.4449 142.156 42.2857 145.475 42.0449 145.954C41.7245 146.514 41.7653 146.714 42.0857 146.714C42.7653 146.714 42.2857 154.308 41.2469 159.624C39.8082 167.059 36.651 174.852 32.0939 182.285L30.5347 184.883L55.2755 185.003C74.6592 185.083 80.0163 185.203 80.0163 185.603C80.0163 186.363 75.9796 194.516 74.0204 197.675C73.102 199.193 72.2612 200.593 72.1408 200.752C72.0612 200.952 84.6102 201.073 100.039 201.073H128.057L127.498 200.193C124.82 196.077 119.984 186.644 119.984 185.485C119.984 185.246 128.857 185.046 144.724 185.005L169.504 184.885L167.665 181.887C161.51 171.775 158.312 161.863 157.673 150.991C157.514 147.834 157.553 146.714 157.914 146.714C158.235 146.714 158.273 146.514 157.955 145.954C157.716 145.475 157.555 142.156 157.555 137.961V130.726L178.778 130.646L200 130.526L184.812 114.738L169.624 98.9504L181.376 98.7504L193.127 98.5504L180.735 84.3626L168.306 70.1748L175.741 69.9749L183.135 69.7749L173.143 57.0646L163.19 44.3953H166.388C168.147 44.3953 169.545 44.2361 169.465 44.0748C169.145 43.2748 141.729 0.429944 141.567 0.429944C141.447 0.429944 135.571 9.50341 128.539 20.6136L115.669 40.7973L107.955 28.6075C103.68 21.8932 100.122 16.4177 100.002 16.4177C99.8816 16.4177 96.3224 21.8932 92.0469 28.6075L84.2939 40.7973L82.4551 37.9197C64.2306 9.2626 58.5939 0.429944 58.4347 0.429944C58.3143 0.429944 52.0388 10.183 44.4449 22.0932ZM66.6265 24.6912C71.0224 31.6055 74.6592 37.4402 74.7408 37.6402C74.8204 37.8402 73.1429 38.0402 70.9837 38.0789L67.1061 38.1993L71.7816 44.1136C74.3388 47.3504 76.6184 50.3483 76.898 50.7483C77.298 51.3871 76.9776 52.1075 74.7 55.7442C73.2204 58.0626 72.0224 60.0606 72.0224 60.181C72.0224 60.3014 73.3816 60.381 75.0204 60.381C76.6592 60.381 78.0184 60.4606 78.0184 60.581C78.0184 60.6606 73.5816 66.3769 68.1857 73.2504L58.3531 85.7606L65.7469 85.9606L73.1408 86.1606L60.7102 100.348L48.3204 114.536L60.1898 114.736L72.0204 114.936L67.3061 119.654L62.6306 124.33L38.7694 124.25L14.949 124.13L30.1367 108.342L45.2837 92.5544L33.0531 92.3544L20.8633 92.1544L33.2531 77.9667L45.6837 63.7789L37.8102 63.5789L29.9367 63.3789L39.849 50.7891L49.7612 38.1993L45.8837 38.0789C43.7245 38.0381 42.0469 37.7993 42.1265 37.6402C42.4061 36.881 58.2327 12.0606 58.4327 12.0606C58.5531 12.0606 62.2306 17.7361 66.6265 24.6912ZM149.759 24.6912C154.155 31.6463 157.792 37.481 157.873 37.6402C157.953 37.8402 156.276 38.0402 154.116 38.0789L150.239 38.1993L160.151 50.7891L170.063 63.3789L162.19 63.5789L154.316 63.7789L166.747 77.9667L179.137 92.1544L166.906 92.3544L154.676 92.5544L169.863 108.342L185.051 124.13L161.231 124.25L137.369 124.33L132.694 119.654L127.978 114.938L139.808 114.738L151.68 114.538L139.29 100.35L126.859 86.1626L134.253 85.9626L141.647 85.7626L131.814 73.2524C126.418 66.3769 121.982 60.6626 121.982 60.583C121.982 60.4626 123.341 60.383 124.98 60.383C126.618 60.383 127.978 60.3034 127.978 60.183C127.978 60.0626 126.778 58.0646 125.3 55.7463C123.02 52.1095 122.702 51.3891 123.102 50.7504C123.382 50.3504 125.659 47.3524 128.218 44.1157L132.894 38.2014L129.016 38.081C126.859 38.0402 125.18 37.8014 125.259 37.6422C125.539 36.9218 141.365 12.0626 141.565 12.0626C141.686 12.0606 145.363 17.7361 149.759 24.6912ZM107.314 39.3585C111.231 45.5544 114.908 51.3891 115.429 52.3075L116.429 53.9871H112.633C110.514 53.9871 108.796 54.1075 108.796 54.2279C108.796 54.3483 113.192 60.0626 118.588 66.8973L128.42 79.3667L120.547 79.5667L112.673 79.7667L125.063 93.9544L137.49 108.144L125.259 108.344L112.988 108.544L122.58 118.536C127.855 124.012 134.769 131.167 137.927 134.444L143.722 140.32H100.041H56.3551L66.1082 130.248C71.4245 124.693 78.3388 117.538 81.4163 114.342L87.0122 108.546L74.7429 108.346L62.5122 108.146L74.9429 93.9585L87.3326 79.7708L79.4592 79.5708L71.6245 79.3708L81.4163 66.9014C86.8122 60.0667 91.2082 54.3524 91.2082 54.232C91.2082 54.1116 89.4898 53.9912 87.4122 53.9912H83.6122L84.6918 52.0728C86.651 48.6748 99.8 28.0524 100 28.0524C100.12 28.0483 103.398 33.1238 107.314 39.3585ZM81.6143 44.9953C81.2143 45.4748 80.9755 45.5157 80.5755 45.1544C79.7755 44.5157 79.8571 44.3953 81.0551 44.3953C81.9347 44.3953 82.0551 44.4748 81.6143 44.9953ZM119.584 44.9953C119.184 45.4748 118.945 45.5157 118.545 45.1544C117.745 44.5157 117.827 44.3953 119.024 44.3953C119.904 44.3953 120.024 44.4748 119.584 44.9953ZM52.798 134.724C50.7592 136.922 49.0408 138.72 48.9612 138.72C48.8816 138.72 48.8408 136.922 48.8408 134.724V130.728H52.6775H56.5143L52.798 134.724ZM151.159 134.724C151.159 136.922 151.08 138.72 150.998 138.72C150.918 138.72 149.2 136.922 147.161 134.724L143.484 130.728H147.32H151.157V134.724H151.159ZM68.1857 150.95C68.7857 160.383 70.4245 166.818 75.1 178.169C75.2592 178.569 71.7816 178.689 58.4327 178.689H41.6061L41.8857 177.771C42.0061 177.291 42.4061 176.371 42.7245 175.732C45.7612 169.818 48.8388 156.028 48.8388 148.514V146.716H58.3918H67.9041L68.1857 150.95ZM83.8939 159.183C83.7347 168.416 83.5347 172.452 83.0551 174.65C82.7347 176.289 82.3755 177.687 82.2959 177.728C82.0163 178.048 79.2184 171.893 77.9 168.016C75.7816 161.901 74.4224 154.626 74.4224 149.271V146.714H79.2592H84.0959L83.8939 159.183ZM109.712 158.983C109.992 175.85 110.831 179.926 116.667 194.195C116.827 194.554 113.349 194.675 100 194.675C86.651 194.675 83.1735 194.554 83.3326 194.154C85.6102 188.599 87.049 184.681 87.8082 181.724C89.8061 174.21 90.0469 171.891 90.2857 158.983L90.4857 146.714H100H109.512L109.712 158.983ZM125.459 150.991C125.02 159.024 122.982 167.097 119.504 174.412C118.424 176.689 117.745 177.728 117.545 177.41C116.627 175.771 115.986 167.338 115.986 157.305V146.714H120.822H125.698L125.459 150.991ZM151.318 150.95C151.918 160.383 153.557 166.818 158.233 178.169C158.392 178.569 154.916 178.689 141.565 178.689H124.739L125.018 177.771C125.139 177.291 125.539 176.371 125.857 175.732C128.894 169.818 131.971 156.028 131.971 148.514V146.716H141.524H151.037L151.318 150.95Z" fill="white"/>
</svg>
