<svg width="75" height="76" viewBox="0 0 75 76" fill="none" xmlns="http://www.w3.org/2000/svg">
<path d="M16.6668 8.55367C13.8191 13.02 11.4811 16.7218 11.4513 16.7968C11.4214 16.8565 11.9457 16.9169 12.6054 16.9169H13.8046L10.073 21.668L6.32602 26.4343L9.09872 26.5093L11.8867 26.5843L7.22449 31.9047L2.57832 37.2259L6.98495 37.3009L11.3916 37.3759L5.69541 43.2955L0 49.2159L7.95842 49.2611L15.9168 49.2909V52.0039C15.9168 53.5774 15.8571 54.8218 15.7668 55.0016C15.6467 55.2113 15.662 55.2863 15.7821 55.2863C16.037 55.2863 15.8571 58.134 15.4676 60.1277C14.9281 62.9157 13.7441 65.8384 12.0352 68.6256L11.4505 69.5998L20.7283 69.645C27.9972 69.6748 30.0061 69.72 30.0061 69.87C30.0061 70.1547 28.4923 73.2121 27.7577 74.3968C27.4133 74.9662 27.098 75.4912 27.0528 75.5509C27.023 75.6259 31.7288 75.671 37.5145 75.671H48.0214L47.8117 75.3412C46.8077 73.7976 44.9939 70.2603 44.9939 69.8256C44.9939 69.7361 48.3214 69.6611 54.2717 69.6458L63.564 69.6006L62.8745 68.4764C60.5663 64.6843 59.3671 60.9672 59.1276 56.8904C59.0679 55.7065 59.0824 55.2863 59.2179 55.2863C59.338 55.2863 59.3526 55.2113 59.2332 55.0016C59.1436 54.8218 59.0832 53.5774 59.0832 52.0039V49.2909L67.0416 49.2611L75 49.2159L69.3046 43.2955L63.6092 37.3751L68.0158 37.3001L72.4225 37.2251L67.7755 31.9047L63.1148 26.5843L65.9028 26.5093L68.6755 26.4343L64.9286 21.668L61.1962 16.9169H62.3954C63.0551 16.9169 63.5793 16.8572 63.5495 16.7968C63.4293 16.4968 53.1482 0.429948 53.0878 0.429948C53.0426 0.429948 50.8393 3.8325 48.202 7.99883L43.376 15.5677L40.4832 10.9965C38.8798 8.47867 37.5459 6.42536 37.5008 6.42536C37.4556 6.42536 36.1209 8.47867 34.5176 10.9965L31.6102 15.5677L30.9207 14.4886C24.0865 3.74219 21.9727 0.429948 21.913 0.429948C21.8679 0.429948 19.5145 4.08735 16.6668 8.55367ZM24.9849 9.52791C26.6334 12.1208 27.9972 14.3088 28.0278 14.3838C28.0577 14.4588 27.4286 14.5338 26.6189 14.5483L25.1648 14.5935L26.9181 16.8113C27.877 18.0251 28.7319 19.1493 28.8367 19.2993C28.9867 19.5389 28.8666 19.809 28.0125 21.1728C27.4577 22.0422 27.0084 22.7914 27.0084 22.8366C27.0084 22.8817 27.5181 22.9116 28.1327 22.9116C28.7472 22.9116 29.2569 22.9414 29.2569 22.9866C29.2569 23.0164 27.5931 25.1601 25.5696 27.7376L21.8824 32.4289L24.6551 32.5039L27.4278 32.5789L22.7663 37.8993L18.1202 43.2197L22.5712 43.2947L27.0077 43.3697L25.2398 45.1391L23.4865 46.8924L14.5385 46.8626L5.60587 46.8175L11.3013 40.897L16.9814 34.9766L12.3949 34.9016L7.82372 34.8266L12.4699 29.5062L17.1314 24.1858L14.1788 24.1108L11.2263 24.0358L14.9434 19.3146L18.6605 14.5935L17.2064 14.5483C16.3967 14.533 15.7676 14.4435 15.7974 14.3838C15.9023 14.0991 21.8372 4.79143 21.9122 4.79143C21.9574 4.79143 23.3365 6.91975 24.9849 9.52791ZM56.1597 9.52791C57.8082 12.1361 59.1719 14.3241 59.2026 14.3838C59.2324 14.4588 58.6033 14.5338 57.7936 14.5483L56.3395 14.5935L60.0566 19.3146L63.7737 24.0358L60.8212 24.1108L57.8686 24.1858L62.5301 29.5062L67.1763 34.8266L62.5898 34.9016L58.0033 34.9766L63.6987 40.897L69.3941 46.8175L60.4615 46.8626L51.5135 46.8924L49.7602 45.1391L47.9916 43.3705L52.4281 43.2955L56.8798 43.2205L52.2337 37.9001L47.5722 32.5797L50.3449 32.5047L53.1176 32.4297L49.4304 27.7384C47.4069 25.1601 45.7431 23.0172 45.7431 22.9873C45.7431 22.9422 46.2528 22.9123 46.8673 22.9123C47.4819 22.9123 47.9916 22.8825 47.9916 22.8373C47.9916 22.7922 47.5416 22.043 46.9875 21.1736C46.1327 19.8098 46.0133 19.5396 46.1633 19.3001C46.2681 19.1501 47.1222 18.0259 48.0819 16.8121L49.8352 14.5942L48.3811 14.5491C47.5722 14.5338 46.9423 14.4442 46.9722 14.3845C47.077 14.1144 53.012 4.79219 53.087 4.79219C53.1321 4.79143 54.5112 6.91975 56.1597 9.52791ZM40.2429 15.0282C41.7115 17.3516 43.0906 19.5396 43.2857 19.884L43.6607 20.5139H42.2372C41.4429 20.5139 40.7985 20.559 40.7985 20.6042C40.7985 20.6493 42.4469 22.7922 44.4704 25.3552L48.1577 30.0312L45.2051 30.1062L42.2526 30.1812L46.8987 35.5016L51.5587 40.8228L46.9722 40.8978L42.3704 40.9728L45.9673 44.7197C47.9457 46.7731 50.5385 49.4562 51.7224 50.6853L53.8959 52.8886H37.5153H21.1332L24.7906 49.1118C26.7842 47.0287 29.377 44.3455 30.5311 43.147L32.6296 40.9736L28.0286 40.8986L23.4421 40.8236L28.1036 35.5032L32.7497 30.1828L29.7972 30.1078L26.8592 30.0328L30.5311 25.3567C32.5546 22.7937 34.2031 20.6509 34.2031 20.6057C34.2031 20.5606 33.5587 20.5154 32.7796 20.5154H31.3546L31.7594 19.796C32.4941 18.5218 37.425 10.7884 37.5 10.7884C37.5452 10.7868 38.7742 12.6902 40.2429 15.0282ZM30.6054 17.1419C30.4554 17.3218 30.3658 17.3371 30.2158 17.2016C29.9158 16.9621 29.9464 16.9169 30.3957 16.9169C30.7255 16.9169 30.7707 16.9468 30.6054 17.1419ZM44.8439 17.1419C44.6939 17.3218 44.6043 17.3371 44.4543 17.2016C44.1543 16.9621 44.185 16.9169 44.6342 16.9169C44.964 16.9169 45.0092 16.9468 44.8439 17.1419ZM19.7992 50.7902C19.0347 51.6144 18.3903 52.2886 18.3605 52.2886C18.3306 52.2886 18.3153 51.6144 18.3153 50.7902V49.2917H19.7541H21.1929L19.7992 50.7902ZM56.6847 50.7902C56.6847 51.6144 56.6548 52.2886 56.6242 52.2886C56.5944 52.2886 55.95 51.6144 55.1855 50.7902L53.8064 49.2917H55.2452H56.6839V50.7902H56.6847ZM25.5696 56.8751C25.7946 60.4123 26.4092 62.8254 28.1625 67.082C28.2222 67.232 26.9181 67.2771 21.9122 67.2771H15.6023L15.7071 66.9328C15.7523 66.7529 15.9023 66.4078 16.0217 66.1682C17.1605 63.9504 18.3145 58.7792 18.3145 55.9613V55.2871H21.8969H25.464L25.5696 56.8751ZM31.4602 59.9623C31.4005 63.4246 31.3255 64.9384 31.1457 65.7626C31.0255 66.3771 30.8908 66.9014 30.861 66.9167C30.7561 67.0368 29.7069 64.7287 29.2125 63.2746C28.4181 60.9817 27.9084 58.2534 27.9084 56.2453V55.2863H29.7222H31.536L31.4602 59.9623ZM41.1421 59.8873C41.2469 66.2126 41.5615 67.7409 43.7503 73.0919C43.81 73.2266 42.5059 73.2718 37.5 73.2718C32.4941 73.2718 31.19 73.2266 31.2497 73.0766C32.1038 70.9935 32.6434 69.5241 32.9281 68.4152C33.6773 65.5973 33.7676 64.7279 33.8571 59.8873L33.9321 55.2863H37.5H41.0671L41.1421 59.8873ZM47.0472 56.8904C46.8827 59.9027 46.1181 62.9302 44.814 65.6731C44.4092 66.5271 44.1543 66.9167 44.0793 66.7973C43.735 66.1828 43.4946 63.0205 43.4946 59.2583V55.2863H45.3084H47.1367L47.0472 56.8904ZM56.7444 56.8751C56.9694 60.4123 57.5839 62.8254 59.3372 67.082C59.3969 67.232 58.0936 67.2771 53.087 67.2771H46.777L46.8819 66.9328C46.927 66.7529 47.077 66.4078 47.1964 66.1682C48.3352 63.9504 49.4893 58.7792 49.4893 55.9613V55.2871H53.0717H56.6388L56.7444 56.8751Z" fill="white"/>
</svg>
