<svg width="100" height="101" viewBox="0 0 100 101" fill="none" xmlns="http://www.w3.org/2000/svg">
<path d="M22.2224 11.2615C18.4255 17.2166 15.3082 22.1524 15.2684 22.2524C15.2286 22.332 15.9276 22.4126 16.8071 22.4126H18.4061L13.4306 28.7473L8.43469 35.1024L12.1316 35.2024L15.849 35.3024L9.63265 42.3962L3.43775 49.4911L9.31327 49.5911L15.1888 49.6911L7.59388 57.584L0 65.4779L10.6112 65.5381L21.2224 65.5779V69.1952C21.2224 71.2932 21.1429 72.9524 21.0224 73.1922C20.8622 73.4718 20.8827 73.5718 21.0429 73.5718C21.3827 73.5718 21.1429 77.3687 20.6235 80.0269C19.9041 83.7442 18.3255 87.6411 16.0469 91.3575L15.2673 92.6564L27.6378 92.7166C37.3296 92.7564 40.0082 92.8167 40.0082 93.0167C40.0082 93.3962 37.9898 97.4728 37.0102 99.0524C36.551 99.8115 36.1306 100.512 36.0704 100.591C36.0306 100.691 42.3051 100.751 50.0194 100.751H64.0286L63.749 100.312C62.4102 98.2534 59.9918 93.5371 59.9918 92.9575C59.9918 92.8381 64.4286 92.7381 72.3622 92.7177L84.752 92.6575L83.8326 91.1585C80.7551 86.1024 79.1561 81.1462 78.8367 75.7105C78.7571 74.132 78.7765 73.5718 78.9571 73.5718C79.1173 73.5718 79.1367 73.4718 78.9775 73.1922C78.8582 72.9524 78.7776 71.2932 78.7776 69.1952V65.5779L89.3888 65.5381L100 65.4779L92.4061 57.584L84.8122 49.6901L90.6878 49.5901L96.5633 49.4901L90.3673 42.3962L84.1531 35.3024L87.8704 35.2024L91.5673 35.1024L86.5714 28.7473L81.5949 22.4126H83.1939C84.0735 22.4126 84.7724 22.333 84.7326 22.2524C84.5724 21.8524 70.8643 0.429907 70.7837 0.429907C70.7235 0.429907 67.7857 4.96664 64.2694 10.5217L57.8347 20.6136L53.9775 14.5187C51.8398 11.1615 50.0612 8.42379 50.001 8.42379C49.9408 8.42379 48.1612 11.1615 46.0235 14.5187L42.1469 20.6136L41.2275 19.1748C32.1153 4.84623 29.2969 0.429907 29.2173 0.429907C29.1571 0.429907 26.0194 5.30644 22.2224 11.2615ZM33.3133 12.5605C35.5112 16.0177 37.3296 18.935 37.3704 19.035C37.4102 19.135 36.5714 19.235 35.4918 19.2544L33.5531 19.3146L35.8908 22.2717C37.1694 23.8901 38.3092 25.3891 38.449 25.5891C38.649 25.9085 38.4888 26.2687 37.35 28.0871C36.6102 29.2462 36.0112 30.2452 36.0112 30.3054C36.0112 30.3656 36.6908 30.4054 37.5102 30.4054C38.3296 30.4054 39.0092 30.4452 39.0092 30.5054C39.0092 30.5452 36.7908 33.4034 34.0929 36.8401L29.1765 43.0952L32.8735 43.1952L36.5704 43.2952L30.3551 50.3891L24.1602 57.483L30.0949 57.583L36.0102 57.683L33.6531 60.0422L31.3153 62.3799L19.3847 62.3401L7.47449 62.2799L15.0684 54.386L22.6418 46.4922L16.5265 46.3922L10.4316 46.2922L16.6265 39.1983L22.8418 32.1044L18.9051 32.0044L14.9684 31.9044L19.9245 25.6095L24.8806 19.3146L22.9418 19.2544C21.8622 19.234 21.0235 19.1146 21.0633 19.035C21.2031 18.6554 29.1163 6.24522 29.2163 6.24522C29.2765 6.24522 31.1153 9.08298 33.3133 12.5605ZM74.8796 12.5605C77.0776 16.0381 78.8959 18.9554 78.9367 19.035C78.9765 19.135 78.1378 19.235 77.0582 19.2544L75.1194 19.3146L80.0755 25.6095L85.0316 31.9044L81.0949 32.0044L77.1582 32.1044L83.3735 39.1983L89.5684 46.2922L83.4531 46.3922L77.3378 46.4922L84.9316 54.386L92.5255 62.2799L80.6153 62.3401L68.6847 62.3799L66.3469 60.0422L63.9888 57.684L69.9041 57.584L75.8398 57.484L69.6449 50.3901L63.4296 43.2962L67.1265 43.1962L70.8235 43.0962L65.9071 36.8411C63.2092 33.4034 60.9908 30.5462 60.9908 30.5064C60.9908 30.4462 61.6704 30.4064 62.4898 30.4064C63.3092 30.4064 63.9888 30.3666 63.9888 30.3064C63.9888 30.2462 63.3888 29.2473 62.65 28.0881C61.5102 26.2697 61.351 25.9095 61.551 25.5901C61.6908 25.3901 62.8296 23.8911 64.1092 22.2728L66.4469 19.3156L64.5082 19.2554C63.4296 19.235 62.5898 19.1156 62.6296 19.036C62.7694 18.6758 70.6827 6.24623 70.7827 6.24623C70.8429 6.24521 72.6816 9.08298 74.8796 12.5605ZM53.6571 19.8942C55.6153 22.9922 57.4541 25.9095 57.7143 26.3687L58.2143 27.2085H56.3163C55.2571 27.2085 54.398 27.2687 54.398 27.3289C54.398 27.3891 56.5959 30.2462 59.2939 33.6636L64.2102 39.8983L60.2735 39.9983L56.3367 40.0983L62.5316 47.1922L68.7449 54.2871L62.6296 54.3871L56.4939 54.4871L61.2898 59.483C63.9275 62.2207 67.3847 65.7983 68.9633 67.4371L71.8612 70.3748H50.0204H28.1775L33.0541 65.3391C35.7122 62.5615 39.1694 58.984 40.7082 57.386L43.5061 54.4881L37.3714 54.3881L31.2561 54.2881L37.4714 47.1942L43.6663 40.1003L39.7296 40.0003L35.8122 39.9003L40.7082 33.6656C43.4061 30.2483 45.6041 27.3911 45.6041 27.3309C45.6041 27.2707 44.7449 27.2105 43.7061 27.2105H41.8061L42.3459 26.2513C43.3255 24.5524 49.9 14.2411 50 14.2411C50.0602 14.2391 51.699 16.7768 53.6571 19.8942ZM40.8071 22.7126C40.6071 22.9524 40.4878 22.9728 40.2878 22.7922C39.8878 22.4728 39.9286 22.4126 40.5275 22.4126C40.9673 22.4126 41.0276 22.4524 40.8071 22.7126ZM59.7918 22.7126C59.5918 22.9524 59.4724 22.9728 59.2724 22.7922C58.8724 22.4728 58.9133 22.4126 59.5122 22.4126C59.952 22.4126 60.0122 22.4524 59.7918 22.7126ZM26.399 67.5769C25.3796 68.6758 24.5204 69.5748 24.4806 69.5748C24.4408 69.5748 24.4204 68.6758 24.4204 67.5769V65.5789H26.3388H28.2571L26.399 67.5769ZM75.5796 67.5769C75.5796 68.6758 75.5398 69.5748 75.499 69.5748C75.4592 69.5748 74.6 68.6758 73.5806 67.5769L71.7418 65.5789H73.6602H75.5786V67.5769H75.5796ZM34.0929 75.6901C34.3929 80.4064 35.2122 83.6238 37.55 89.2993C37.6296 89.4993 35.8908 89.5595 29.2163 89.5595H20.8031L20.9429 89.1003C21.0031 88.8605 21.2031 88.4003 21.3622 88.0809C22.8806 85.1238 24.4194 78.2289 24.4194 74.4718V73.5728H29.1959H33.952L34.0929 75.6901ZM41.9469 79.8064C41.8673 84.4228 41.7673 86.4411 41.5276 87.5401C41.3673 88.3595 41.1878 89.0585 41.148 89.0789C41.0082 89.2391 39.6092 86.1615 38.95 84.2228C37.8908 81.1656 37.2112 77.5279 37.2112 74.8503V73.5718H39.6296H42.048L41.9469 79.8064ZM54.8561 79.7064C54.9959 88.1401 55.4153 90.1779 58.3337 97.3126C58.4133 97.4922 56.6745 97.5524 50 97.5524C43.3255 97.5524 41.5867 97.4922 41.6663 97.2922C42.8051 94.5146 43.5245 92.5554 43.9041 91.0769C44.9031 87.3197 45.0235 86.1605 45.1429 79.7064L45.2429 73.5718H50H54.7561L54.8561 79.7064ZM62.7296 75.7105C62.5102 79.7269 61.4908 83.7636 59.752 87.4207C59.2122 88.5595 58.8724 89.0789 58.7724 88.9197C58.3133 88.1003 57.9929 83.884 57.9929 78.8677V73.5718H60.4112H62.849L62.7296 75.7105ZM75.6592 75.6901C75.9592 80.4064 76.7786 83.6238 79.1163 89.2993C79.1959 89.4993 77.4582 89.5595 70.7827 89.5595H62.3694L62.5092 89.1003C62.5694 88.8605 62.7694 88.4003 62.9286 88.0809C64.4469 85.1238 65.9857 78.2289 65.9857 74.4718V73.5728H70.7622H75.5184L75.6592 75.6901Z" fill="white"/>
</svg>
